<svg width="32" height="32" viewBox="0 0 32 32" fill="none" xmlns="http://www.w3.org/2000/svg">
  <!-- Fundo verde/turquesa com bordas arredondadas -->
  <rect width="32" height="32" rx="6" fill="#10b882"/>
  
  <!-- Ícone Sparkles (Faíscas) em branco - versão simplificada -->
  <g transform="translate(16, 16)">
    <!-- Faísca principal (centro) -->
    <path d="M 0,-8 L 1.5,-3 L 5,-4 L 2.5,0 L 4,5 L 0,2.5 L -4,5 L -2.5,0 L -5,-4 L -1.5,-3 Z" 
          fill="white"/>
    
    <!-- Faísca pequena (superior direita) -->
    <path d="M 5,-6 L 5.5,-4.5 L 6.5,-5 L 6,-3.5 L 6.5,-2 L 5,-3 L 3.5,-2 L 4,-3.5 L 3.5,-5 L 4.5,-4.5 Z" 
          fill="white" 
          opacity="0.8"/>
    
    <!-- Faísca pequena (inferior esquerda) -->
    <path d="M -5,6 L -4.5,4.5 L -3.5,5 L -4,3.5 L -3.5,2 L -5,3 L -6.5,2 L -6,3.5 L -6.5,5 L -5.5,4.5 Z" 
          fill="white" 
          opacity="0.8"/>
  </g>
</svg>
